<svg xmlns="http://www.w3.org/2000/svg" viewBox="0 0 202 236" color="#ffffff" role="img" aria-label="THNK"><style>
  @keyframes rulein{
    0%{transform:scaleX(0)} 22.5%{transform:scaleX(1)}
    80%{transform:scaleX(1)} 100%{transform:scaleX(0)}
  }
  @keyframes thin{
    0%,10%{opacity:0;transform:translateY(-34px)}
    35%,80%{opacity:1;transform:translateY(0)}
    100%{opacity:0;transform:translateY(-12px)}
  }
  @keyframes nkin{
    0%,10%{opacity:0;transform:translateY(34px)}
    35%,80%{opacity:1;transform:translateY(0)}
    100%{opacity:0;transform:translateY(12px)}
  }
  #rule{transform-box:fill-box;transform-origin:center;
        animation:rulein 2s cubic-bezier(.16,1,.3,1) infinite}
  #th{transform-box:fill-box;transform-origin:center;
      animation:thin 2s cubic-bezier(.16,1,.3,1) infinite}
  #nk{transform-box:fill-box;transform-origin:center;
      animation:nkin 2s cubic-bezier(.16,1,.3,1) infinite}
</style><g fill="currentColor">
  <g id="th"><path d="M0 0H86V22H54V100H32V22H0Z" transform="translate(0.0 0)"/><path d="M0 0H22V39H70V0H92V100H70V61H22V100H0Z" transform="translate(110.0 0)"/></g><g id="rule"><rect x="0" y="110" width="202" height="16" rx="8"/></g><g id="nk"><path d="M0 0H22L72 68V0H94V100H72L22 32V100H0Z" transform="translate(0.0 136)"/><path d="M0 0H22V42L56 0H86L46 50L90 100H60L22 58V100H0Z" transform="translate(112.0 136)"/></g></g></svg>
